<svg xmlns="http://www.w3.org/2000/svg" viewBox="0 0 1920 1080" preserveAspectRatio="xMidYMid slice">
  <defs>
    <radialGradient id="sky" cx="50%" cy="35%" r="90%">
      <stop offset="0%" stop-color="#8fd8b0"/>
      <stop offset="45%" stop-color="#2e7d5b"/>
      <stop offset="100%" stop-color="#0c2e22"/>
    </radialGradient>
    <radialGradient id="glow" cx="50%" cy="42%" r="30%">
      <stop offset="0%" stop-color="#fdf6c8" stop-opacity="0.95"/>
      <stop offset="60%" stop-color="#c9e88a" stop-opacity="0.35"/>
      <stop offset="100%" stop-color="#c9e88a" stop-opacity="0"/>
    </radialGradient>
    <linearGradient id="ground" x1="0" y1="0" x2="0" y2="1">
      <stop offset="0%" stop-color="#123527" stop-opacity="0"/>
      <stop offset="100%" stop-color="#061a12"/>
    </linearGradient>
  </defs>
  <rect width="1920" height="1080" fill="url(#sky)"/>
  <ellipse cx="960" cy="460" rx="520" ry="360" fill="url(#glow)"/>
  <path d="M660 1080 V620 a300 340 0 0 1 600 0 V1080 Z" fill="none" stroke="#eafbd7" stroke-opacity="0.55" stroke-width="14"/>
  <path d="M700 1080 V630 a260 300 0 0 1 520 0 V1080 Z" fill="#fdf6c8" fill-opacity="0.12"/>
  <g fill="#0a281c" opacity="0.85">
    <path d="M0 1080 L120 760 L260 1080 Z"/>
    <path d="M180 1080 L340 680 L520 1080 Z"/>
    <path d="M1400 1080 L1580 660 L1760 1080 Z"/>
    <path d="M1660 1080 L1800 740 L1920 1020 V1080 Z"/>
  </g>
  <rect width="1920" height="1080" fill="url(#ground)"/>
  <g fill="#fdf6c8" opacity="0.7">
    <circle cx="300" cy="220" r="3"/><circle cx="520" cy="140" r="2"/><circle cx="820" cy="90" r="2.5"/>
    <circle cx="1180" cy="130" r="2"/><circle cx="1460" cy="200" r="3"/><circle cx="1680" cy="110" r="2"/>
  </g>
</svg>
